<svg width="200" height="200" viewBox="0 0 200 200" fill="none" xmlns="http://www.w3.org/2000/svg">
<rect width="200" height="200" fill="#D9D9D9"/>
<g filter="url(#filter0_d_43_23)">
<path d="M45.6348 68.8H70.0188C78.3388 68.8 84.5148 70.752 88.5468 74.656C92.5788 78.496 94.5948 84.48 94.5948 92.608V112.192C94.5948 120.32 92.5788 126.336 88.5468 130.24C84.5148 134.08 78.3388 136 70.0188 136H45.6348V123.808H51.9708V80.896H45.6348V68.8ZM70.0188 123.904C74.4348 123.904 77.5068 122.88 79.2348 120.832C81.0268 118.72 81.9228 115.456 81.9228 111.04V92.608C81.9228 88.768 81.0268 85.856 79.2348 83.872C77.5068 81.888 74.4348 80.896 70.0188 80.896H64.6428V123.904H70.0188ZM119.584 110.656V136H106.912V68.8H133.216C136.672 68.8 139.68 69.376 142.24 70.528C144.8 71.616 146.912 73.088 148.576 74.944C150.304 76.736 151.584 78.816 152.416 81.184C153.312 83.488 153.76 85.856 153.76 88.288V90.592C153.76 93.088 153.312 95.552 152.416 97.984C151.584 100.352 150.304 102.496 148.576 104.416C146.912 106.272 144.8 107.776 142.24 108.928C139.68 110.08 136.672 110.656 133.216 110.656H119.584ZM119.584 98.56H131.968C134.784 98.56 136.992 97.792 138.592 96.256C140.256 94.72 141.088 92.736 141.088 90.304V89.152C141.088 86.72 140.256 84.736 138.592 83.2C136.992 81.664 134.784 80.896 131.968 80.896H119.584V98.56Z" fill="#4E4E4E"/>
<path d="M45.6348 68.8V68.3H45.1348V68.8H45.6348ZM88.5468 74.656L88.1989 75.0152L88.2019 75.0181L88.5468 74.656ZM88.5468 130.24L88.8916 130.602L88.8946 130.599L88.5468 130.24ZM45.6348 136H45.1348V136.5H45.6348V136ZM45.6348 123.808V123.308H45.1348V123.808H45.6348ZM51.9708 123.808V124.308H52.4708V123.808H51.9708ZM51.9708 80.896H52.4708V80.396H51.9708V80.896ZM45.6348 80.896H45.1348V81.396H45.6348V80.896ZM79.2348 120.832L78.8535 120.509L78.8526 120.51L79.2348 120.832ZM79.2348 83.872L78.8577 84.2004L78.8637 84.2071L79.2348 83.872ZM64.6428 80.896V80.396H64.1428V80.896H64.6428ZM64.6428 123.904H64.1428V124.404H64.6428V123.904ZM45.6348 69.3H70.0188V68.3H45.6348V69.3ZM70.0188 69.3C78.2708 69.3 84.2968 71.2369 88.1989 75.0152L88.8946 74.2968C84.7327 70.2671 78.4067 68.3 70.0188 68.3V69.3ZM88.2019 75.0181C92.0968 78.7275 94.0948 84.5535 94.0948 92.608H95.0948C95.0948 84.4065 93.0607 78.2645 88.8916 74.2939L88.2019 75.0181ZM94.0948 92.608V112.192H95.0948V92.608H94.0948ZM94.0948 112.192C94.0948 120.246 92.0971 126.106 88.1989 129.881L88.8946 130.599C93.0604 126.566 95.0948 120.394 95.0948 112.192H94.0948ZM88.2019 129.878C84.2999 133.594 78.2727 135.5 70.0188 135.5V136.5C78.4048 136.5 84.7296 134.566 88.8916 130.602L88.2019 129.878ZM70.0188 135.5H45.6348V136.5H70.0188V135.5ZM46.1348 136V123.808H45.1348V136H46.1348ZM45.6348 124.308H51.9708V123.308H45.6348V124.308ZM52.4708 123.808V80.896H51.4708V123.808H52.4708ZM51.9708 80.396H45.6348V81.396H51.9708V80.396ZM46.1348 80.896V68.8H45.1348V80.896H46.1348ZM70.0188 124.404C74.4889 124.404 77.7469 123.371 79.6169 121.154L78.8526 120.51C77.2666 122.389 74.3806 123.404 70.0188 123.404V124.404ZM79.616 121.155C81.5188 118.913 82.4228 115.508 82.4228 111.04H81.4228C81.4228 115.404 80.5347 118.527 78.8535 120.509L79.616 121.155ZM82.4228 111.04V92.608H81.4228V111.04H82.4228ZM82.4228 92.608C82.4228 88.6977 81.5108 85.6459 79.6058 83.5369L78.8637 84.2071C80.5427 86.0661 81.4228 88.8383 81.4228 92.608H82.4228ZM79.6118 83.5436C77.7407 81.3953 74.4849 80.396 70.0188 80.396V81.396C74.3846 81.396 77.2728 82.3807 78.8577 84.2004L79.6118 83.5436ZM70.0188 80.396H64.6428V81.396H70.0188V80.396ZM64.1428 80.896V123.904H65.1428V80.896H64.1428ZM64.6428 124.404H70.0188V123.404H64.6428V124.404ZM119.584 110.656V110.156H119.084V110.656H119.584ZM119.584 136V136.5H120.084V136H119.584ZM106.912 136H106.412V136.5H106.912V136ZM106.912 68.8V68.3H106.412V68.8H106.912ZM142.24 70.528L142.035 70.9841L142.044 70.9882L142.24 70.528ZM148.576 74.944L148.204 75.2778L148.21 75.2845L148.216 75.2911L148.576 74.944ZM152.416 81.184L151.944 81.3497L151.947 81.3575L151.95 81.3652L152.416 81.184ZM152.416 97.984L151.947 97.8111L151.944 97.8183L152.416 97.984ZM148.576 104.416L148.204 104.082L148.204 104.082L148.576 104.416ZM142.24 108.928L142.445 109.384L142.445 109.384L142.24 108.928ZM119.584 98.56H119.084V99.06H119.584V98.56ZM138.592 96.256L138.253 95.8885L138.246 95.8953L138.592 96.256ZM138.592 83.2L138.246 83.5608L138.253 83.5674L138.592 83.2ZM119.584 80.896V80.396H119.084V80.896H119.584ZM119.084 110.656V136H120.084V110.656H119.084ZM119.584 135.5H106.912V136.5H119.584V135.5ZM107.412 136V68.8H106.412V136H107.412ZM106.912 69.3H133.216V68.3H106.912V69.3ZM133.216 69.3C136.617 69.3 139.552 69.8669 142.035 70.984L142.445 70.072C139.808 68.8851 136.727 68.3 133.216 68.3V69.3ZM142.044 70.9882C144.545 72.0508 146.594 73.4824 148.204 75.2778L148.948 74.6102C147.23 72.6936 145.055 71.1812 142.436 70.0678L142.044 70.9882ZM148.216 75.2911C149.894 77.0309 151.136 79.0489 151.944 81.3497L152.888 81.0183C152.032 78.5831 150.714 76.4411 148.936 74.5969L148.216 75.2911ZM151.95 81.3652C152.824 83.6124 153.26 85.919 153.26 88.288H154.26C154.26 85.793 153.8 83.3636 152.882 81.0028L151.95 81.3652ZM153.26 88.288V90.592H154.26V88.288H153.26ZM153.26 90.592C153.26 93.0268 152.823 95.4323 151.947 97.8111L152.885 98.1569C153.801 95.6717 154.26 93.1492 154.26 90.592H153.26ZM151.944 97.8183C151.135 100.122 149.889 102.209 148.204 104.082L148.948 104.75C150.719 102.783 152.033 100.582 152.888 98.1497L151.944 97.8183ZM148.204 104.082C146.592 105.88 144.539 107.345 142.035 108.472L142.445 109.384C145.061 108.207 147.232 106.664 148.948 104.75L148.204 104.082ZM142.035 108.472C139.552 109.589 136.617 110.156 133.216 110.156V111.156C136.727 111.156 139.808 110.571 142.445 109.384L142.035 108.472ZM133.216 110.156H119.584V111.156H133.216V110.156ZM119.584 99.06H131.968V98.06H119.584V99.06ZM131.968 99.06C134.877 99.06 137.222 98.2644 138.938 96.6167L138.246 95.8953C136.762 97.3196 134.691 98.06 131.968 98.06V99.06ZM138.931 96.6234C140.706 94.9852 141.588 92.864 141.588 90.304H140.588C140.588 92.608 139.806 94.4548 138.253 95.8886L138.931 96.6234ZM141.588 90.304V89.152H140.588V90.304H141.588ZM141.588 89.152C141.588 86.592 140.706 84.4708 138.931 82.8326L138.253 83.5674C139.806 85.0012 140.588 86.848 140.588 89.152H141.588ZM138.938 82.8393C137.222 81.1916 134.877 80.396 131.968 80.396V81.396C134.691 81.396 136.762 82.1364 138.246 83.5607L138.938 82.8393ZM131.968 80.396H119.584V81.396H131.968V80.396ZM119.084 80.896V98.56H120.084V80.896H119.084Z" fill="#059669"/>
</g>
<defs>
<filter id="filter0_d_43_23" x="43.6348" y="68.8" width="112.125" height="71.2" filterUnits="userSpaceOnUse" color-interpolation-filters="sRGB">
<feFlood flood-opacity="0" result="BackgroundImageFix"/>
<feColorMatrix in="SourceAlpha" type="matrix" values="0 0 0 0 0 0 0 0 0 0 0 0 0 0 0 0 0 0 127 0" result="hardAlpha"/>
<feOffset dy="2"/>
<feGaussianBlur stdDeviation="1"/>
<feComposite in2="hardAlpha" operator="out"/>
<feColorMatrix type="matrix" values="0 0 0 0 0 0 0 0 0 0 0 0 0 0 0 0 0 0 0.25 0"/>
<feBlend mode="normal" in2="BackgroundImageFix" result="effect1_dropShadow_43_23"/>
<feBlend mode="normal" in="SourceGraphic" in2="effect1_dropShadow_43_23" result="shape"/>
</filter>
</defs>
</svg>
